PathFileType	4	(X/Y/Z)	/Users/itak/Documents/Research/Walk-IL/dataset/trc/00191_00008.trc
DataRate	CameraRate	NumFrames	NumMarkers	Units	OrigDataRate	OrigDataStartFrame	OrigNumFrames
100.000000	100.000000	4	53	mm	100.000000	298	795
Frame#	Time	RPSI			LPSI			L3			STRN			T10			C7			CLAV			RBAK			LBAK			LSHO			LUPA			LAEL			LAOL			LWTS			LWPS			LFRA			LIFD			LHPS			LHTS			RSHO			RUPA			RAEL			RAOL			RWTS			RWPS			RFRA			RIFD			RHTS			RHPS			RBHD			LFHD			RFHD			LBHD			LHIP			RHIP			RASI			LASI			LKNE			LTHI			LANK			LTIP			LTOE			LMT1			LMT5			LHEE			RKNE			RTHI			RANK			RTIP			RTOE			RMT1			RMT5			RHEE			
		X1	Y1	Z1	X2	Y2	Z2	X3	Y3	Z3	X4	Y4	Z4	X5	Y5	Z5	X6	Y6	Z6	X7	Y7	Z7	X8	Y8	Z8	X9	Y9	Z9	X10	Y10	Z10	X11	Y11	Z11	X12	Y12	Z12	X13	Y13	Z13	X14	Y14	Z14	X15	Y15	Z15	X16	Y16	Z16	X17	Y17	Z17	X18	Y18	Z18	X19	Y19	Z19	X20	Y20	Z20	X21	Y21	Z21	X22	Y22	Z22	X23	Y23	Z23	X24	Y24	Z24	X25	Y25	Z25	X26	Y26	Z26	X27	Y27	Z27	X28	Y28	Z28	X29	Y29	Z29	X30	Y30	Z30	X31	Y31	Z31	X32	Y32	Z32	X33	Y33	Z33	X34	Y34	Z34	X35	Y35	Z35	X36	Y36	Z36	X37	Y37	Z37	X38	Y38	Z38	X39	Y39	Z39	X40	Y40	Z40	X41	Y41	Z41	X42	Y42	Z42	X43	Y43	Z43	X44	Y44	Z44	X45	Y45	Z45	X46	Y46	Z46	X47	Y47	Z47	X48	Y48	Z48	X49	Y49	Z49	X50	Y50	Z50	X51	Y51	Z51	X52	Y52	Z52	X53	Y53	Z53	

299	2.98	-519.9033813476562	1046.694946289062	-209.9863739013672	-617.8601684570312	1054.204833984375	-284.2481689453125	-562.6538696289062	1087.815063476562	-245.0763854980469	-405.1142272949219	1288.9404296875	-463.041748046875	-570.5848999023438	1249.775268554688	-216.4911041259766	-523.7757568359375	1515.747314453125	-279.7051391601562	-421.71533203125	1404.108520507812	-446.1232604980469	-483.3570556640625	1338.479736328125	-163.0884704589844	-612.8436279296875	1497.332763671875	-326.5347595214844	-642.1412963867188	1486.220458984375	-432.7084350585938	-728.3807983398438	1357.232788085938	-431.8591003417969	-746.6369018554688	1141.07275390625	-440.68310546875	-693.353759765625	1123.224853515625	-371.8930969238281	-693.8130493164062	911.6127319335938	-544.167724609375	-753.7592163085938	888.580078125	-476.7291259765625	-758.8250122070312	1031.030639648438	-458.9555969238281	-667.8961181640625	737.5747680664062	-554.6212768554688	-744.7510986328125	819.5176391601562	-499.955810546875	-713.1444091796875	834.9989624023438	-563.667724609375	-343.5218811035156	1483.5712890625	-233.7477874755859	-302.9101257324219	1414.409057617188	-177.9269714355469	-281.0927124023438	1121.7099609375	-136.6406097412109	-365.9851989746094	1122.432739257812	-182.5411071777344	-218.5081939697266	941.8367919921875	-325.5314025878906	-223.1632385253906	895.128662109375	-249.3485260009766	-252.8343353271484	1049.44921875	-165.4848937988281	-225.3894348144531	777.3628540039062	-417.3771057128906	-194.3065032958984	861.4207153320312	-373.3637084960938	-208.8813171386719	826.1431884765625	-301.8796081542969	-423.442626953125	1651.149047851562	-278.1941223144531	-423.8994445800781	1735.512573242188	-480.1192626953125	-321.2153625488281	1714.052978515625	-404.7535095214844	-535.785400390625	1680.929443359375	-349.5626220703125	-667.8372192382812	1011.349670410156	-425.7648010253906	-333.5286254882812	984.9771118164062	-262.5899658203125	-327.5491027832031	1018.523010253906	-356.9765014648438	-536.9537353515625	1039.072631835938	-505.9787902832031	-580.2177124023438	523.8756713867188	-621.9318237304688	-609.843994140625	665.9241333007812	-583.5808715820312	-793.4432373046875	158.6301727294922	-379.0469970703125	-688.348876953125	343.0694274902344	-520.2069091796875	-678.7223510742188	65.24509429931641	-530.0545043945312	-658.4054565429688	84.123046875	-469.2123413085938	-781.8148193359375	96.78166198730469	-471.781005859375	-759.1619873046875	186.6250915527344	-308.026611328125	-423.9789123535156	492.684814453125	-364.6526184082031	-326.1655883789062	750.6287231445312	-330.2980041503906	-572.696533203125	32.11442565917969	-375.6636657714844	-451.8463134765625	379.2198791503906	-403.0171203613281	-428.7799072265625	44.58716583251953	-546.4937133789062	-497.4832763671875	41.16280746459961	-544.1870727539062	-464.1210632324219	37.5263786315918	-423.1737060546875	-652.7158203125	31.60452842712402	-392.7544250488281	
300	2.99	-518.0494995117188	1046.194580078125	-216.2955627441406	-614.0748901367188	1053.9228515625	-292.6882019042969	-559.4459838867188	1087.464477539062	-252.2891693115234	-398.0714111328125	1288.41650390625	-467.4308166503906	-567.3516845703125	1249.68115234375	-223.5204162597656	-519.467529296875	1515.427734375	-286.3700866699219	-415.1366577148438	1403.637939453125	-451.048583984375	-480.6571044921875	1338.5146484375	-168.8473205566406	-607.953369140625	1496.848022460938	-334.3335876464844	-635.7744750976562	1485.443115234375	-440.8215942382812	-722.3779907226562	1356.724243164062	-441.0294189453125	-741.7425537109375	1140.838745117188	-450.2068786621094	-689.6422119140625	1122.5712890625	-380.5969848632812	-687.8255004882812	911.8642578125	-554.0817260742188	-748.6992797851562	888.4329833984375	-487.7415771484375	-753.8427124023438	1030.816528320312	-469.1818237304688	-661.9134521484375	738.0862426757812	-565.2479858398438	-739.5021362304688	819.531494140625	-511.3456726074219	-707.0421752929688	835.4741821289062	-574.4229125976562	-339.8328247070312	1483.769287109375	-237.7890625	-299.5578918457031	1414.53759765625	-181.5539245605469	-277.2613830566406	1121.381225585938	-141.2531127929688	-362.1543884277344	1122.142578125	-187.0724334716797	-214.2732391357422	943.0132446289062	-331.4347534179688	-218.3945159912109	895.854736328125	-255.4827575683594	-248.8755035400391	1049.217529296875	-170.4263763427734	-220.8488006591797	779.0087890625	-424.1815490722656	-189.9471740722656	862.9844360351562	-379.824951171875	-203.9883880615234	827.23095703125	-308.4767761230469	-419.0126953125	1651.110961914062	-284.011962890625	-417.965087890625	1734.929809570312	-486.138671875	-315.8715515136719	1713.794189453125	-409.9324951171875	-530.7987060546875	1680.556274414062	-356.31591796875	-659.0919799804688	1010.642822265625	-438.072265625	-331.1726989746094	984.0428466796875	-264.0990600585938	-322.3511352539062	1018.101501464844	-358.652099609375	-528.0068359375	1039.125	-512.3160400390625	-563.537353515625	525.1194458007812	-631.8839111328125	-595.8030395507812	666.7813110351562	-593.6529541015625	-781.4669189453125	149.8114776611328	-410.0008544921875	-673.4786376953125	339.7774353027344	-540.3956909179688	-658.7208862304688	63.86127853393555	-559.2784423828125	-641.4554443359375	80.33559417724609	-496.7069396972656	-764.69091796875	92.07437896728516	-504.4967346191406	-750.719482421875	175.1826019287109	-336.3219299316406	-422.6513671875	492.1670532226562	-364.4330749511719	-323.6497192382812	749.66650390625	-330.7555236816406	-572.7532958984375	32.11679840087891	-375.682373046875	-450.7833251953125	378.8653564453125	-402.8922424316406	-428.5166625976562	43.96917724609375	-546.5188598632812	-497.3235778808594	41.11079406738281	-544.1995239257812	-463.9949340820312	37.31854629516602	-423.0345458984375	-652.857666015625	31.73372650146484	-393.1871948242188	
301	3	-516.2134399414062	1045.5625	-222.6534271240234	-610.2769165039062	1053.60400390625	-301.13232421875	-556.27587890625	1087.019165039062	-259.4257507324219	-390.9825439453125	1287.80615234375	-471.7238159179688	-564.0690307617188	1249.508178710938	-230.5408325195312	-515.140625	1515.0244140625	-293.0501403808594	-408.4808349609375	1403.08251953125	-455.8994445800781	-477.9353332519531	1338.48583984375	-174.6016540527344	-602.9889526367188	1496.3017578125	-342.133056640625	-629.2723999023438	1484.59716796875	-448.9276123046875	-716.2131958007812	1356.174560546875	-450.2782287597656	-736.8148803710938	1140.627319335938	-459.9526977539062	-685.9269409179688	1121.88916015625	-389.4603881835938	-681.77099609375	912.0333862304688	-564.0032958984375	-743.7039794921875	888.3280029296875	-498.8945617675781	-748.7886962890625	1030.629028320312	-479.5947570800781	-656.0947265625	738.5128784179688	-575.7215576171875	-734.4259033203125	819.5905151367188	-522.8497924804688	-700.9530639648438	835.8907470703125	-585.1956787109375	-336.1332397460938	1483.857666015625	-241.7953186035156	-296.1961669921875	1414.58056640625	-185.1420135498047	-273.5142211914062	1120.940673828125	-145.7906494140625	-358.3334045410156	1121.74951171875	-191.583984375	-210.0536956787109	943.8944091796875	-337.0728454589844	-213.6724548339844	896.3994140625	-261.2908630371094	-244.9496765136719	1048.915161132812	-175.2682189941406	-216.3306884765625	780.2100830078125	-430.4718017578125	-185.5997619628906	864.170654296875	-385.8959655761719	-199.140625	828.06298828125	-314.63525390625	-414.5033874511719	1650.98291015625	-289.8002014160156	-411.9492492675781	1734.244140625	-492.1063232421875	-310.4501037597656	1713.440551757812	-415.0551147460938	-525.743408203125	1680.099731445312	-363.0574340820312	-649.6010131835938	1009.511108398438	-451.2671813964844	-328.7771911621094	983.1976928710938	-265.7357788085938	-317.2156677246094	1017.648376464844	-360.2817077636719	-519.0336303710938	1039.076171875	-518.5419311523438	-546.8324584960938	526.1631469726562	-640.9754638671875	-581.6825561523438	667.4622802734375	-603.1177368164062	-768.0299682617188	141.0756988525391	-440.7987060546875	-657.9046630859375	336.4723510742188	-560.0371704101562	-637.0968017578125	62.61477661132812	-587.43896484375	-622.9995727539062	76.65939331054688	-523.3272094726562	-745.8399047851562	87.42420959472656	-536.549072265625	-740.9641723632812	163.8267822265625	-364.7383422851562	-421.2633361816406	491.6726379394531	-364.5042419433594	-321.2334899902344	748.76806640625	-331.3567504882812	-572.8178100585938	32.12301635742188	-375.6357421875	-449.6777648925781	378.4886779785156	-402.9957885742188	-428.251220703125	43.41945648193359	-546.5216674804688	-497.142333984375	41.07583618164062	-544.2207641601562	-463.8807067871094	37.11325836181641	-422.9013366699219	-653.0174560546875	31.86576080322266	-393.6235961914062	
302	3.01	-514.3527221679688	1044.850341796875	-229.0444641113281	-606.4629516601562	1053.241455078125	-309.572509765625	-553.1826782226562	1086.471923828125	-266.49169921875	-383.8558654785156	1287.115478515625	-475.9237060546875	-560.738525390625	1249.259887695312	-237.5548248291016	-510.7835083007812	1514.552001953125	-299.7338562011719	-401.7506713867188	1402.44775390625	-460.6826171875	-475.1922607421875	1338.399658203125	-180.3583526611328	-597.9358520507812	1495.694458007812	-349.9338684082031	-622.6331787109375	1483.704833984375	-457.0238037109375	-709.8843383789062	1355.599487304688	-459.5909729003906	-731.8276977539062	1140.448608398438	-469.8858337402344	-682.1530151367188	1121.19970703125	-398.479736328125	-675.6695556640625	912.1278686523438	-573.923828125	-738.7630004882812	888.274658203125	-510.1481018066406	-743.65283203125	1030.48291015625	-490.1570739746094	-650.4183959960938	738.8505249023438	-586.0123291015625	-729.4881591796875	819.6939086914062	-534.4085083007812	-694.886474609375	836.2325439453125	-595.946044921875	-332.4125061035156	1483.822998046875	-245.7902984619141	-292.8316955566406	1414.53173828125	-188.701416015625	-269.8524475097656	1120.385986328125	-150.2467193603516	-354.5108032226562	1121.27587890625	-196.1099853515625	-205.8354644775391	944.4862060546875	-342.4449157714844	-209.0009155273438	896.7581176757812	-266.7775573730469	-241.0417785644531	1048.559936523438	-180.0189971923828	-211.8087310791016	780.9834594726562	-436.2691040039062	-181.2473754882812	864.982666015625	-391.585205078125	-194.3380279541016	828.6370239257812	-320.3671569824219	-409.9171447753906	1650.767944335938	-295.5643920898438	-405.8376159667969	1733.46240234375	-498.0265808105469	-304.9426574707031	1712.995239257812	-420.1234130859375	-520.6074829101562	1679.560913085938	-369.7904052734375	-639.7774047851562	1008.189208984375	-464.6209106445312	-326.3026428222656	982.448486328125	-267.5037231445312	-312.1117858886719	1017.171997070312	-361.8760681152344	-510.0211181640625	1038.9345703125	-524.6656494140625	-530.1646728515625	527.0283203125	-649.2716674804688	-567.549072265625	667.9717407226562	-612.0081176757812	-753.041748046875	132.4738464355469	-471.2631530761719	-641.6318359375	333.2216186523438	-579.0615844726562	-613.9080200195312	61.54811096191406	-614.3951416015625	-603.0504150390625	73.20983123779297	-548.998291015625	-725.2741088867188	82.85811614990234	-567.751953125	-729.762451171875	152.6626434326172	-393.1296997070312	-419.7781982421875	491.1905822753906	-364.8821716308594	-318.8497619628906	747.9229125976562	-332.0978088378906	-572.8844604492188	32.13393783569336	-375.5339050292969	-448.5004272460938	378.0801391601562	-403.3378295898438	-427.9845275878906	42.94430541992188	-546.5033569335938	-496.9434509277344	41.05889892578125	-544.2556762695312	-463.7770080566406	36.9076042175293	-422.7703247070312	-653.1710815429688	31.99834823608398	-393.9981079101562	
